<?xml version="1.0" standalone="yes"?>
<svg xmlns="http://www.w3.org/2000/svg" width="1920" height="1080">
<path style="fill:#072b47; stroke:none;" d="M0 0L0 40C8.56135 40 32.5082 44.1125 38.1553 36.7024C45.1595 27.5116 32.3266 5.69873 50.0008 4.09082C99.7571 -0.435669 152.014 4 202 4L250 4C257.026 4 266.236 2.44348 272.972 4.60266C288.487 9.57617 271.434 35.0997 286.031 39.479C301.976 44.2625 325.331 40 342 40L464 40L1920 40L1920 0L0 0z"/>
<path style="fill:#093f67; stroke:none;" d="M9.07407 4.84473C1.90368 7.87305 1.77673 27.1869 5.97994 32.7024C9.81149 37.7302 25.4703 37.4912 30.8706 35.1553C37.9254 32.1038 38.343 12.7926 34.1553 7.29761C30.2957 2.23303 14.511 2.54858 9.07407 4.84473z"/>
<path style="fill:#0c4c7d; stroke:none;" d="M0 40L0 1078L1920 1078L1920 40L465 40L343 40C326.246 40 303.068 44.1915 287.011 39.479C271.329 34.8765 288.558 9.42078 273.936 4.60266C267.265 2.4043 257.975 4 251 4L203 4C152.365 4 99.4038 -0.517334 49.0033 4.09082C32.4284 5.60632 45.1347 28.1003 37.479 36.7024C30.9933 43.9899 9.05542 40 0 40z"/>
<path style="fill:#2290df; stroke:none;" d="M48 22L58 12C49.823 12.0227 48.0227 13.823 48 22z"/>
<path style="fill:#1867a4; stroke:none;" d="M55 16L59 16L58 20L54 20L53 17C45.4489 24.6013 52.5636 32.7268 60.2038 25.5878C66.6184 19.594 62.8162 7.3667 55 16z"/>
<path style="fill:#8395a3; stroke:none;" d="M299 13L299 19L293 19L293 21L299 21L299 27L301 27L301 21L307 21L307 19L301 19L301 13L299 13z"/>
<path style="fill:#ffffff; stroke:none;" d="M1849 15L1849 16L1853 16L1849 15z"/>
<path style="fill:#acb8c1; stroke:none;" d="M1853.67 15.3334L1854.33 15.6666L1853.67 15.3334z"/>
<path style="fill:#f2f4f5; stroke:none;" d="M1892 15L1893 16L1892 15M1901 15L1902 16L1901 15z"/>
<path style="fill:#b1d3ec; stroke:none;" d="M53 18L59 18C56.9176 15.9337 55.0824 15.9337 53 18z"/>
<path style="fill:#f0f4f7; stroke:none;" d="M73 16L73 25C80.9482 24.1627 80.9483 16.8373 73 16z"/>
<path style="fill:#ffffff; stroke:none;" d="M88 16L88 25L89 25L91 20L91 19L91 17L88 16z"/>
<path style="fill:#d1dde6; stroke:none;" d="M115 20C109.273 18.9785 108.325 23.7974 114 25L114 24L110 23L110 22C115.903 22.9918 122.313 27.417 124 19C126.111 21.0004 127.918 22.2607 125 24L125 25C130.624 23.8087 128.613 20.6743 126 17L130 18L130 17L124 18C119.992 16.0886 117.447 16.0677 115 20z"/>
<path style="fill:#e1e9ef; stroke:none;" d="M150 16L150 24L150 25C155.624 23.8087 153.613 20.6744 151 17L155 18L150 16z"/>
<path style="fill:#f0f4f7; stroke:none;" d="M158.398 16.9458C154.489 18.5212 156.382 25.7717 160.825 24.1815C165.419 22.5371 163.022 15.0822 158.398 16.9458z"/>
<path style="fill:#bfd0dd; stroke:none;" d="M166 19L172 18C169.299 16.2791 167.931 16.4215 166 19z"/>
<path style="fill:#f0f4f7; stroke:none;" d="M176 16L176 25C183.948 24.1627 183.948 16.8373 176 16z"/>
<path style="fill:#8eacc3; stroke:none;" d="M195 16L195 25L196 25L195 16z"/>
<path style="fill:#e1e9ef; stroke:none;" d="M196 16L196 25L197 25L198 20L199 20L200 25L201 25L196 16z"/>
<path style="fill:#bfd0dd; stroke:none;" d="M202 16L202 25C210.325 24.8243 207.536 18.702 202 16z"/>
<path style="fill:#6a91af; stroke:none;" d="M230 16L230 19L231 19L230 16z"/>
<path style="fill:#f0f4f7; stroke:none;" d="M231 16C228.225 20.219 223.963 24.1284 232 25L231 16z"/>
<path style="fill:#e5ecf1; stroke:none;" d="M260 16L261 17L260 16z"/>
<path style="fill:#ebf1f5; stroke:none;" d="M267 16L268 17L267 16z"/>
<path style="fill:#ffffff; stroke:none;" d="M1855 16L1855 20L1856 20L1855 16z"/>
<path style="fill:#f3f5f6; stroke:none;" d="M1893 16L1894 17L1893 16M1900 16L1901 17L1900 16z"/>
<path style="fill:#a0b5c4; stroke:none;" d="M14 17C17.4836 23.7609 22.5164 23.761 26 17C21.0718 20.0886 18.9281 20.0886 14 17z"/>
<path style="fill:#e7eff5; stroke:none;" d="M54 20L55 20L57 20C58.6221 16.8949 54.7632 16.4386 54 20z"/>
<path style="fill:#6a91af; stroke:none;" d="M74 17L74 24L75 24L74 17z"/>
<path style="fill:#0c4c7d; stroke:none;" d="M75 17L75 24C77.7744 21.9427 77.7547 20.2921 77 17L75 17M118.631 18.3613C116.614 19.657 118 24.1606 120.369 22.6387C122.386 21.3431 121 16.8394 118.631 18.3613z"/>
<path style="fill:#8eacc3; stroke:none;" d="M149.333 17.6666L149.667 18.3334L149.333 17.6666z"/>
<path style="fill:#0c4c7d; stroke:none;" d="M158 17L158 24C162.294 22.2968 162.294 18.7032 158 17z"/>
<path style="fill:#6a91af; stroke:none;" d="M177 17L177 24L178 24L177 17z"/>
<path style="fill:#0c4c7d; stroke:none;" d="M178 17L178 24C180.774 21.9426 180.755 20.292 180 17L178 17z"/>
<path style="fill:#ebf1f5; stroke:none;" d="M261 17L262 18L261 17z"/>
<path style="fill:#f3f6f9; stroke:none;" d="M266 17L267 18L266 17z"/>
<path style="fill:#ffffff; stroke:none;" d="M1847.72 18.1635C1844.07 21.0167 1848.6 26.7196 1852.28 23.8365C1855.93 20.9833 1851.4 15.2805 1847.72 18.1635z"/>
<path style="fill:#f3f5f6; stroke:none;" d="M1894 17L1895 18L1894 17M1899 17L1900 18L1899 17z"/>
<path style="fill:#7696b0; stroke:none;" d="M55.6667 18.3334L56.3333 18.6666L55.6667 18.3334z"/>
<path style="fill:#f0f4f7; stroke:none;" d="M165 18C165.262 23.0575 166.776 25.1826 172 24L172 23L167 24L165 18z"/>
<path style="fill:#ebf1f5; stroke:none;" d="M262 18L263 19L262 18z"/>
<path style="fill:#f4f7f9; stroke:none;" d="M265 18L266 19L265 18z"/>
<path style="fill:#072b47; stroke:none;" d="M1847 18L1847 24L1853 24L1853 18L1847 18z"/>
<path style="fill:#f3f5f6; stroke:none;" d="M1895 18L1896 19L1895 18z"/>
<path style="fill:#4d667b; stroke:none;" d="M1896 18L1895 19L1895 21L1896 22L1898 22L1899 21L1899 19L1898 18L1896 18z"/>
<path style="fill:#f3f5f6; stroke:none;" d="M1898 18L1899 19L1898 18z"/>
<path style="fill:#6a91af; stroke:none;" d="M78 19L78 22L79 22L78 19z"/>
<path style="fill:#f0f4f7; stroke:none;" d="M86 25L86 24L82 23L82 22L87 22C83.2932 17.0685 79.1154 23.5409 86 25M96 25L96 24L92 23L92 22L96 22L96 19C90.855 20.0905 90.855 23.9095 96 25z"/>
<path style="fill:#8eacc3; stroke:none;" d="M97 19L97 25L98 25L97 19z"/>
<path style="fill:#e1e9ef; stroke:none;" d="M98 19L98 25L99 25L100 20L101 20L102 25C103.164 21.2935 101.605 19.7622 98 19z"/>
<path style="fill:#f0f4f7; stroke:none;" d="M104 19L107 23L104 24L104 25L108 25L105 21L108 20L104 19z"/>
<path style="fill:#0c4c7d; stroke:none;" d="M124 19L128 24L124 19z"/>
<path style="fill:#6a91af; stroke:none;" d="M155 19L155 22L156 22L155 19M164 19L164 22L165 22L164 19M181 19L181 22L182 22L181 19z"/>
<path style="fill:#e1e9ef; stroke:none;" d="M184 19L184 20L187 20L187 21L184 25L189 25L189 19L184 19z"/>
<path style="fill:#f0f4f7; stroke:none;" d="M192 22L194 20C191.606 18.6554 188.879 20.2469 192 22M210.717 20.2362C208.443 21.886 211.006 25.4159 213.283 23.7638C215.557 22.1138 212.994 18.5844 210.717 20.2362z"/>
<path style="fill:#e1e9ef; stroke:none;" d="M216 19L216 20L219 20L219 21L216 25L221 25L221 19L216 19z"/>
<path style="fill:#bfd0dd; stroke:none;" d="M222 19L222 25L224 25L226 20L222 19z"/>
<path style="fill:#f8fafc; stroke:none;" d="M263 19L263 21L265 21L265 19L263 19z"/>
<path style="fill:#c1cad1; stroke:none;" d="M299 19L299 21L301 21L301 19L299 19z"/>
<path style="fill:#f4f6f7; stroke:none;" d="M1896 19L1896 21L1898 21L1898 19L1896 19z"/>
<path style="fill:#0c4c7d; stroke:none;" d="M83.6667 20.3334L84.3333 20.6666L83.6667 20.3334M93.6667 20.3334L94.3333 20.6666L93.6667 20.3334M111.667 20.3334L112.333 20.6666L111.667 20.3334M205 20L204 24L205 20M211 20L211 24L214 23L214 21L213 20L211 20M228 20L228 24L230 24L230 20L228 20z"/>
<path style="fill:#ffffff; stroke:none;" d="M1800 20L1800 21L1810 21L1800 20z"/>
<path style="fill:#acb8c1; stroke:none;" d="M1855.33 20.6666L1855.67 21.3334L1855.33 20.6666z"/>
<path style="fill:#8eacc3; stroke:none;" d="M101 21L101 25L102 25L101 21z"/>
<path style="fill:#ffffff; stroke:none;" d="M133 21L133 22L146 22L133 21z"/>
<path style="fill:#8eacc3; stroke:none;" d="M199 21L199 25L200 25L199 21z"/>
<path style="fill:#6a91af; stroke:none;" d="M210.333 21.6666L210.667 22.3334L210.333 21.6666M230.333 21.6666L230.667 22.3334L230.333 21.6666z"/>
<path style="fill:#f6f8fa; stroke:none;" d="M262 21L263 22L262 21z"/>
<path style="fill:#eff4f7; stroke:none;" d="M265 21L266 22L265 21z"/>
<path style="fill:#f3f5f6; stroke:none;" d="M1895 21L1896 22L1895 21M1898 21L1899 22L1898 21z"/>
<path style="fill:#9ec1dc; stroke:none;" d="M55.6667 22.3334L56.3333 22.6666L55.6667 22.3334z"/>
<path style="fill:#6a91af; stroke:none;" d="M185.333 22.6666L185.667 23.3334L185.333 22.6666z"/>
<path style="fill:#0c4c7d; stroke:none;" d="M186.333 22.6666L186.667 23.3334L186.333 22.6666z"/>
<path style="fill:#f0f4f7; stroke:none;" d="M192 22L190 24L190 25C192.48 24.8093 195.177 23.7842 192 22z"/>
<path style="fill:#6a91af; stroke:none;" d="M217.333 22.6666L217.667 23.3334L217.333 22.6666z"/>
<path style="fill:#0c4c7d; stroke:none;" d="M218.333 22.6666L218.667 23.3334L218.333 22.6666z"/>
<path style="fill:#f6f8fa; stroke:none;" d="M261 22L262 23L261 22z"/>
<path style="fill:#eff4f7; stroke:none;" d="M266 22L267 23L266 22z"/>
<path style="fill:#f3f5f6; stroke:none;" d="M1894 22L1895 23L1894 22M1899 22L1900 23L1899 22z"/>
<path style="fill:#8eacc3; stroke:none;" d="M124.667 23.3334L125.333 23.6666L124.667 23.3334M149.667 23.3334L150.333 23.6666L149.667 23.3334z"/>
<path style="fill:#f0f4f7; stroke:none;" d="M260 23L261 24L260 23z"/>
<path style="fill:#e6edf2; stroke:none;" d="M267 23L268 24L267 23z"/>
<path style="fill:#f3f5f6; stroke:none;" d="M1893 23L1894 24L1893 23z"/>
<path style="fill:#f1f3f5; stroke:none;" d="M1900 23L1901 24L1900 23M1892 24L1893 25L1892 24z"/>
<path style="fill:#f3f5f6; stroke:none;" d="M1901 24L1902 25L1901 24z"/>
<path style="fill:#355d7c; stroke:none;" d="M84 46L84 47C103.649 42.8729 124.962 45 145 45L251 45L588 45L1653 45C1643.72 41.5304 1629.89 44 1620 44L1549 44L1307 44L485 44L204 44L123 44C110.88 44 95.3708 41.4221 84 46z"/>
<path style="fill:#093a60; stroke:none;" d="M90 45.5065C75.2989 48.4213 72.8696 69.4896 88.0001 73.8988C97.809 76.7572 109.871 75 120 75L183 75L390 75L1279 75L1569 75L1638 75C1646.83 75 1658.58 76.5181 1664.17 67.9686C1670.48 58.3066 1663.38 47.1609 1653 45.4637C1630.44 41.7747 1604.86 45 1582 45L1289 45L474 45L214 45L131 45C117.903 45 102.862 42.9564 90 45.5065z"/>
<path style="fill:#fbfdfe; stroke:none;" d="M1758 50L1758 51C1763.42 52.1771 1767.1 53.29 1772 50C1766.96 47.9727 1762.99 47.7417 1758 50z"/>
<path style="fill:#0e91e1; stroke:none;" d="M1831 54C1835.19 53.9641 1838.12 54.0996 1840 50C1835.87 50.0352 1832.66 49.8031 1831 54z"/>
<path style="fill:#0d47ca; stroke:none;" d="M1840 50L1839 55L1845 55L1840 50z"/>
<path style="fill:#983921; stroke:none;" d="M1756 51L1753 63L1759 63L1763 59L1764 55L1767 56C1764.25 52.1165 1760.61 51.2042 1756 51z"/>
<path style="fill:#ac5721; stroke:none;" d="M1765 53L1765 54L1767 56L1764 55L1763 63L1763 64L1768 64C1770.05 58.3664 1772.86 61.4354 1777 63C1776.33 54.7445 1773.39 50.4512 1765 53z"/>
<path style="fill:#dae4ec; stroke:none;" d="M1688.67 52.3334L1689.33 52.6666L1688.67 52.3334z"/>
<path style="fill:#43749a; stroke:none;" d="M1708 52L1708 68L1709 68L1708 52z"/>
<path style="fill:#7095b2; stroke:none;" d="M1728.67 52.3334L1729.33 52.6666L1728.67 52.3334z"/>
<path style="fill:#c5d5e0; stroke:none;" d="M19 53L20 54L19 53z"/>
<path style="fill:#96b1c7; stroke:none;" d="M52 55L55 53L52 55z"/>
<path style="fill:#ecf1f5; stroke:none;" d="M55 53L55 54L58 54L55 53z"/>
<path style="fill:#98b3c8; stroke:none;" d="M57 54L57 55L61 55L57 54z"/>
<path style="fill:#ffffff; stroke:none;" d="M61 53L58 56L58 57L62 57L61 53z"/>
<path style="fill:#5e7e97; stroke:none;" d="M88 54L88 55L96 55L88 54z"/>
<path style="fill:#5b7b95; stroke:none;" d="M1651 53L1644 58L1650 67L1650 66L1646 58L1651 55L1653 55L1658 58L1654 67L1657 68L1660 58L1653 53L1651 53z"/>
<path style="fill:#ffffff; stroke:none;" d="M1687 53L1683 54L1682 59L1684 55L1687 53z"/>
<path style="fill:#0c4c7d; stroke:none;" d="M1688 53L1684 55L1682 59L1682 60L1682 61L1684 65L1688 67L1689 67L1690 67L1694 65L1691 61L1691 59L1694 55L1690 53L1688 53z"/>
<path style="fill:#ffffff; stroke:none;" d="M1690 53L1694 55L1692 58L1692 59C1695.05 58.3456 1694.94 56.9935 1695 54L1690 53z"/>
<path style="fill:#dce5ed; stroke:none;" d="M1728.67 53.3334L1729.33 53.6666L1728.67 53.3334z"/>
<path style="fill:#e8b389; stroke:none;" d="M1755 53L1755 57L1756 57L1755 53z"/>
<path style="fill:#2aa0b3; stroke:none;" d="M1829 56L1839 56L1839 54L1829 56z"/>
<path style="fill:#d9e3eb; stroke:none;" d="M18 54L19 55L18 54z"/>
<path style="fill:#8ea4b6; stroke:none;" d="M1617 56L1622 56L1622 57C1614.61 58.0729 1616.82 62.4661 1623 63C1622.97 59.4506 1621.98 51.2096 1617 56z"/>
<path style="fill:#799cb7; stroke:none;" d="M1726 58L1727 58L1728 55L1732 57C1729.6 53.666 1727.46 54.3423 1726 58z"/>
<path style="fill:#facc89; stroke:none;" d="M1757 58L1762 54L1757 58z"/>
<path style="fill:#f5be74; stroke:none;" d="M1770 54L1774 58L1770 54z"/>
<path style="fill:#a9b1b7; stroke:none;" d="M1775 54L1776 58L1777 58L1775 54z"/>
<path style="fill:#d9e3eb; stroke:none;" d="M17 55L18 56L17 55z"/>
<path style="fill:#e3eaf0; stroke:none;" d="M51 55L52 56L51 55z"/>
<path style="fill:#eafae1; stroke:none;" d="M112 55L109 57L109 58L112 57L112 65L113 65L112 55z"/>
<path style="fill:#9f3a60; stroke:none;" d="M113 55L113 65L114 65L113 55z"/>
<path style="fill:#fafafa; stroke:none;" d="M117 55L117 56L121 57L116 65L122 65L122 64L118 64C120.906 60.1804 123.072 56.2911 117 55z"/>
<path style="fill:#09b2e1; stroke:none;" d="M123 55L124 56L123 55z"/>
<path style="fill:#eafae1; stroke:none;" d="M124 55L124 56L128 56L127 61L128 61L130 55L124 55z"/>
<path style="fill:#faeed3; stroke:none;" d="M136.676 56.2509C133.824 58.2493 135.499 66.2949 139.324 63.6138C142.185 61.6086 140.404 53.6383 136.676 56.2509z"/>
<path style="fill:#fafafa; stroke:none;" d="M145 63L146 63L147 56L149 56L147 64C155.707 65.1395 146.913 48.6267 145.101 59.8385C144.945 60.808 145.021 62.0628 145 63z"/>
<path style="fill:#faeed3; stroke:none;" d="M159 55L156 57L156 58L159 57L159 65L160 65L159 55z"/>
<path style="fill:#723a60; stroke:none;" d="M160 55L160 65L161 65L160 55z"/>
<path style="fill:#8ba2b4; stroke:none;" d="M170 55L166 63L172 65L173 62L170 55z"/>
<path style="fill:#747d60; stroke:none;" d="M171 55L171 62L172 62L171 55z"/>
<path style="fill:#84a2a5; stroke:none;" d="M177 55L174 57L174 58L177 57L177 65L178 65L177 55z"/>
<path style="fill:#5d3a60; stroke:none;" d="M178 55L178 65L179 65L178 55z"/>
<path style="fill:#849ca0; stroke:none;" d="M181 55L181 56L186 56L183 65L184 65L188 55L181 55z"/>
<path style="fill:#8ba2b4; stroke:none;" d="M189 57L193 56L190 59L190 60L193 64L189 63C194.647 68.4374 193.975 58.1362 194 55L189 57z"/>
<path style="fill:#849ca0; stroke:none;" d="M200 55L195 67C198.626 64.3458 200.681 59.4697 200 55z"/>
<path style="fill:#6c9cb4; stroke:none;" d="M202 55L202 65L203 65L202 55z"/>
<path style="fill:#747d60; stroke:none;" d="M203 55L203 65L204 65L203 55M222.667 55.3334L223.333 55.6666L222.667 55.3334z"/>
<path style="fill:#093a60; stroke:none;" d="M1651 55L1646 58L1648 66L1656 66L1658 58L1653 55L1651 55z"/>
<path style="fill:#bac3ca; stroke:none;" d="M1754 55L1753 59L1754 59L1754 55z"/>
<path style="fill:#1a5684; stroke:none;" d="M1836 64L1840 64L1843 55C1838.01 56.0419 1837.3 59.4743 1836 64z"/>
<path style="fill:#6466b4; stroke:none;" d="M1843 55L1843 56L1849 56L1843 55z"/>
<path style="fill:#ffffff; stroke:none;" d="M1858 58L1864 57C1861.63 54.7172 1859.83 55.5118 1858 58z"/>
<path style="fill:#c2d2df; stroke:none;" d="M1865 55L1865 64L1867 64L1867 55L1865 55z"/>
<path style="fill:#86a6be; stroke:none;" d="M17 64L15 61L28 61L28 59L15 59L17 56C13.1647 58.475 13.1647 61.525 17 64z"/>
<path style="fill:#98b3c8; stroke:none;" d="M50 56L49 58L51 58L50 56z"/>
<path style="fill:#63829a; stroke:none;" d="M86 56L86 64L87 64L86 56z"/>
<path style="fill:#4e718d; stroke:none;" d="M97 56C97.7059 62.5817 94.5817 65.7059 88 65L88 66C94.8356 67.7483 101.794 63.1052 97 56z"/>
<path style="fill:#09b2e1; stroke:none;" d="M116 56L117 57L116 56z"/>
<path style="fill:#d4b260; stroke:none;" d="M117 56L118 57L117 56z"/>
<path style="fill:#093a60; stroke:none;" d="M137 56C136.105 59.538 135.954 61.7451 139 64L139 56L137 56M147 56L147 64C150.046 61.745 149.895 59.538 149 56L147 56z"/>
<path style="fill:#6c6560; stroke:none;" d="M194.333 56.6667L194.667 57.3333L194.333 56.6667z"/>
<path style="fill:#3f6683; stroke:none;" d="M1627 56L1628 60L1631 59L1631 57L1627 56z"/>
<path style="fill:#48af81; stroke:none;" d="M1828 60L1838 59L1838 56C1833.58 56.0123 1830.03 55.5852 1828 60z"/>
<path style="fill:#a64ee3; stroke:none;" d="M1842 56L1842 57L1850 62C1849.43 56.762 1846.92 56.1102 1842 56z"/>
<path style="fill:#c2d2df; stroke:none;" d="M1878 56L1878 58L1880 58L1880 56L1878 56z"/>
<path style="fill:#618199; stroke:none;" d="M91.6667 57.3333L92.3333 57.6667L91.6667 57.3333z"/>
<path style="fill:#098ed3; stroke:none;" d="M111 57L111 65L112 65L111 57z"/>
<path style="fill:#09b2e1; stroke:none;" d="M120.333 57.6667L120.667 58.3333L120.333 57.6667z"/>
<path style="fill:#723a60; stroke:none;" d="M122.333 57.6667L122.667 58.3333L122.333 57.6667z"/>
<path style="fill:#72caf0; stroke:none;" d="M134 57L134 63L135 63L134 57z"/>
<path style="fill:#bd8e60; stroke:none;" d="M146 57L146 63L147 63L146 57z"/>
<path style="fill:#d4b260; stroke:none;" d="M151 57L151 63L152 63L151 57z"/>
<path style="fill:#09b2e1; stroke:none;" d="M158 57L158 65L159 65L158 57z"/>
<path style="fill:#0965a0; stroke:none;" d="M176 57L176 65L177 65L176 57z"/>
<path style="fill:#879fb1; stroke:none;" d="M1625 58L1626 62L1630 62L1628 57L1625 58z"/>
<path style="fill:#8fadc3; stroke:none;" d="M1722 57L1724 64L1725 64L1722 57z"/>
<path style="fill:#f6f8fa; stroke:none;" d="M1723 57L1723 58L1726 58L1723 57z"/>
<path style="fill:#ffffff; stroke:none;" d="M1731 57L1731 58L1737 58L1731 57z"/>
<path style="fill:#f56c7f; stroke:none;" d="M1841 57L1839 66L1847 69L1849 61L1844 57L1841 57z"/>
<path style="fill:#fafbfc; stroke:none;" d="M49 58L49 62L50 62L49 58z"/>
<path style="fill:#09b2e1; stroke:none;" d="M139 58L139 62L140 62L139 58z"/>
<path style="fill:#723a60; stroke:none;" d="M141 58L141 61L142 61L141 58z"/>
<path style="fill:#093ac0; stroke:none;" d="M144 58L144 63L145 63L144 58z"/>
<path style="fill:#8b9096; stroke:none;" d="M163 58L163 60L165 60L165 58L163 58z"/>
<path style="fill:#5d90b4; stroke:none;" d="M207.375 58.9449C203.927 60.3982 206.181 65.5808 209.625 64.1824C213.082 62.7788 210.891 57.4628 207.375 58.9449z"/>
<path style="fill:#8ba2a5; stroke:none;" d="M219 65L219 66L214 67L214 68C220.174 67.33 219.985 63.4014 220 58C214.257 58.6232 212.645 63.6518 219 65z"/>
<path style="fill:#5d3a60; stroke:none;" d="M220 58L220 66L221 66L220 58z"/>
<path style="fill:#6c9cb4; stroke:none;" d="M222 58L222 65L223 65L222 58z"/>
<path style="fill:#747d60; stroke:none;" d="M223 58L223 65L224 65L223 58z"/>
<path style="fill:#3e8aaf; stroke:none;" d="M225 58L225 65L226 65L225 58z"/>
<path style="fill:#8ba2b4; stroke:none;" d="M226 58L226 65L227 65L230 59L230 65L231 65L231 58L226 58z"/>
<path style="fill:#093a60; stroke:none;" d="M1617 59L1617 61L1618 62L1622 58L1617 59z"/>
<path style="fill:#d3dfe8; stroke:none;" d="M1857 58C1857.78 61.89 1859.11 63.2242 1863 64L1863 63L1859 58L1857 58z"/>
<path style="fill:#ffffff; stroke:none;" d="M1867 58L1867 59L1870 60L1867 58M1872 58L1872 59L1876 59L1872 58M1877 58L1877 59L1881 59L1877 58z"/>
<path style="fill:#7b9db8; stroke:none;" d="M1899 58C1902.61 62.3344 1905.39 62.3344 1909 58L1899 58z"/>
<path style="fill:#f5f8fa; stroke:none;" d="M12 59L12 61L14 61L14 59L12 59z"/>
<path style="fill:#f2f6f8; stroke:none;" d="M62 59L62 62L63 62L62 59z"/>
<path style="fill:#4c708b; stroke:none;" d="M91 59L91 63L93 63L93 59L91 59z"/>
<path style="fill:#72caf0; stroke:none;" d="M126.333 59.6667L126.667 60.3333L126.333 59.6667z"/>
<path style="fill:#093a60; stroke:none;" d="M169 59L168 62L169 59M208 59L208 64L210 64L210 59L208 59M216 59L216 64L218 64L218 59L216 59z"/>
<path style="fill:#747d60; stroke:none;" d="M231 59L231 65L232 65L231 59z"/>
<path style="fill:#e5ecf1; stroke:none;" d="M1681.33 59.6667L1681.67 60.3333L1681.33 59.6667z"/>
<path style="fill:#dfe8ee; stroke:none;" d="M1691.33 59.6667L1691.67 60.3333L1691.33 59.6667z"/>
<path style="fill:#fac877; stroke:none;" d="M1758 62L1765 63C1762.8 59.7411 1760.69 58.7209 1758 62z"/>
<path style="fill:#f8cb78; stroke:none;" d="M1768 63L1774 63C1772.6 58.799 1769.4 58.7988 1768 63z"/>
<path style="fill:#fefefe; stroke:none;" d="M1795 59L1795 61L1797 61L1797 59L1795 59M1800 59L1800 61L1802 61L1802 59L1800 59M1805 59L1805 61L1807 61L1807 59L1805 59z"/>
<path style="fill:#a1be3c; stroke:none;" d="M1828 64L1829 64C1831.55 61.8443 1833.07 61.2673 1836 63L1837 63L1837 59C1832.39 59.0395 1829.07 58.964 1828 64z"/>
<path style="fill:#c2d2df; stroke:none;" d="M1870 59L1869 64L1871 64L1870 59M1873 60L1877 64L1877 59L1873 60M1878 59C1878.06 61.9934 1877.95 63.3456 1881 64L1880 59L1878 59z"/>
<path style="fill:#3e8aaf; stroke:none;" d="M213 60L213 64L214 64L213 60z"/>
<path style="fill:#567792; stroke:none;" d="M1630 60L1629 67C1632.22 64.8425 1632.49 62.9553 1630 60z"/>
<path style="fill:#ffffff; stroke:none;" d="M1731 60L1731 61L1737 61L1731 60z"/>
<path style="fill:#eaeed3; stroke:none;" d="M126 61L126 65L127 65L126 61z"/>
<path style="fill:#723a60; stroke:none;" d="M127.333 61.6667L127.667 62.3333L127.333 61.6667z"/>
<path style="fill:#50738e; stroke:none;" d="M1624 62L1625 65L1630 62L1624 62z"/>
<path style="fill:#ffffff; stroke:none;" d="M1682 61L1683 66L1688 67L1684 65L1682 61M1692 61L1692 62L1694 65L1690 67L1695 66L1695 61L1692 61z"/>
<path style="fill:#ebc60c; stroke:none;" d="M1829 64C1832.67 64.5692 1834.74 64.7772 1836 61L1829 64z"/>
<path style="fill:#7297b3; stroke:none;" d="M1871.33 61.6667L1871.67 62.3333L1871.33 61.6667z"/>
<path style="fill:#ffffff; stroke:none;" d="M1872 61L1875 64L1875 63L1872 61z"/>
<path style="fill:#1a5684; stroke:none;" d="M1873 61L1873 63L1875 63L1875 61L1873 61z"/>
<path style="fill:#9bb6ca; stroke:none;" d="M49 62L54 67L49 62z"/>
<path style="fill:#84a4bd; stroke:none;" d="M61 62L61 65L62 65L63 62L61 62z"/>
<path style="fill:#72caf0; stroke:none;" d="M125 62L125 65L126 65L125 62z"/>
<path style="fill:#95b0c6; stroke:none;" d="M1863.33 62.6667L1863.67 63.3333L1863.33 62.6667z"/>
<path style="fill:#09b2e1; stroke:none;" d="M131.333 63.6667L131.667 64.3333L131.333 63.6667z"/>
<path style="fill:#fafae1; stroke:none;" d="M132.333 63.6667L132.667 64.3333L132.333 63.6667z"/>
<path style="fill:#9f3a60; stroke:none;" d="M133.333 63.6667L133.667 64.3333L133.333 63.6667z"/>
<path style="fill:#bdeefa; stroke:none;" d="M142.333 63.6667L142.667 64.3333L142.333 63.6667z"/>
<path style="fill:#eacaa3; stroke:none;" d="M143.333 63.6667L143.667 64.3333L143.333 63.6667z"/>
<path style="fill:#09b2e1; stroke:none;" d="M145 63L146 64L145 63z"/>
<path style="fill:#72caf0; stroke:none;" d="M146.333 63.6667L146.667 64.3333L146.333 63.6667z"/>
<path style="fill:#09b2e1; stroke:none;" d="M152.333 63.6667L152.667 64.3333L152.333 63.6667z"/>
<path style="fill:#fafae1; stroke:none;" d="M153.333 63.6667L153.667 64.3333L153.333 63.6667z"/>
<path style="fill:#9f3a60; stroke:none;" d="M154.333 63.6667L154.667 64.3333L154.333 63.6667z"/>
<path style="fill:#8b9096; stroke:none;" d="M163 63L163 65L165 65L165 63L163 63z"/>
<path style="fill:#88a0b2; stroke:none;" d="M1624 63C1624.84 66.9017 1627.39 65.9767 1629 63L1624 63z"/>
<path style="fill:#ffffff; stroke:none;" d="M1731 63L1731 64L1737 64L1731 63z"/>
<path style="fill:#170d0c; stroke:none;" d="M1754 63C1756.17 69.7048 1760.47 71.3557 1766 67C1768.97 71.044 1772.74 70.1011 1773 65L1776 65L1776 63L1754 63z"/>
<path style="fill:#d9e3eb; stroke:none;" d="M17 64L18 65L17 64z"/>
<path style="fill:#e8eef3; stroke:none;" d="M60 64L61 65L60 64z"/>
<path style="fill:#d4b260; stroke:none;" d="M122 64L123 65L122 64z"/>
<path style="fill:#bd8e60; stroke:none;" d="M139 64L140 65L139 64z"/>
<path style="fill:#d7e1e9; stroke:none;" d="M1724 64L1727 67L1727 66L1724 64z"/>
<path style="fill:#7b874c; stroke:none;" d="M1829 64L1829 65L1832 65L1829 64z"/>
<path style="fill:#8c6263; stroke:none;" d="M1835 64L1835 65L1839 65L1835 64z"/>
<path style="fill:#d9e3eb; stroke:none;" d="M18 65L19 66L18 65z"/>
<path style="fill:#86a6bf; stroke:none;" d="M58 67L61 66L58 67z"/>
<path style="fill:#6f8ba2; stroke:none;" d="M1650 65L1650 66L1654 66L1650 65z"/>
<path style="fill:#dde6ed; stroke:none;" d="M1727.67 65.3333L1728.33 65.6667L1727.67 65.3333z"/>
<path style="fill:#726467; stroke:none;" d="M1773 65L1774 67L1775 67L1776 65L1773 65z"/>
<path style="fill:#dd483e; stroke:none;" d="M1833 65L1838 70L1839 65L1833 65z"/>
<path style="fill:#baccda; stroke:none;" d="M19 66L20 67L19 66z"/>
<path style="fill:#eef3f6; stroke:none;" d="M54 66L54 67L58 67L54 66z"/>
<path style="fill:#fc9e5d; stroke:none;" d="M1839 66L1838 70L1846 70L1839 66z"/>
<path style="fill:#d6e1e9; stroke:none;" d="M1688.67 67.3333L1689.33 67.6667L1688.67 67.3333z"/>
<path style="fill:#ffe7ad; stroke:none;" d="M1765 67L1765 70L1766 70L1765 67z"/>
<path style="fill:#d3a881; stroke:none;" d="M1764 68L1764 72L1765 72L1764 68z"/>
<path style="fill:#c88c64; stroke:none;" d="M1766.33 68.6667L1766.67 69.3333L1766.33 68.6667z"/>
<path style="fill:#d0cac5; stroke:none;" d="M1761 72L1764 70L1761 72z"/>
<path style="fill:#814a2a; stroke:none;" d="M1765 70L1765 72L1767 70L1765 70z"/>
<path style="fill:#a8a49d; stroke:none;" d="M1766 72L1769 70L1766 72z"/>
<path style="fill:#355d7c; stroke:none;" d="M90 75L90 76L1653 76C1641.18 71.5828 1622.62 75 1610 75L1515 75L1191 75L90 75z"/>
<path style="fill:#091826; stroke:none;" d="M9.12937 80.9533C3.50853 83.4993 4.00222 89.8126 4 95L4 133L4 297L4 881L4 1024L4 1058C4.00171 1062.69 3.34723 1068.72 7.46155 1072.02C13.7807 1077.09 30.2411 1074 38 1074L120 1074L440 1074L1513 1074L1803 1074L1881 1074C1889.34 1074 1904.4 1076.87 1911.73 1072.46C1916.41 1069.64 1915.99 1063.74 1916 1059L1916 1026L1916 884L1916 294L1916 134L1916 96C1916 90.9489 1916.84 84.5327 1911.76 81.5396C1903.36 76.592 1885.56 80 1876 80L1788 80L1460 80L423 80L128 80L44 80C34.2489 80 18.0768 76.9006 9.12937 80.9533z"/>
<path style="fill:#06576f; stroke:none;" d="M941 350L941 351L979 351L941 350M928 401L929 401C929 385.134 923.623 360.968 940 352C934.298 350.949 929.858 356.92 928.589 362C925.633 373.835 928 388.822 928 401M991 363L991 401L992 401L991 363z"/>
<path style="fill:#0390b0; stroke:none;" d="M959.667 367.333L960.333 367.667L959.667 367.333z"/>
<path style="fill:#00d4ff; stroke:none;" d="M957 368.812C941.982 372.701 947.269 398.669 961.999 395.475C977.596 392.093 975.008 364.148 957 368.812z"/>
<path style="fill:#082231; stroke:none;" d="M969 374C966.145 373.114 963.02 371.156 960 371.135C935.32 370.969 965.346 411.02 968.844 383.999C969.267 380.729 969 377.292 969 374z"/>
<path style="fill:#0298ba; stroke:none;" d="M950 374L950 384L951 384L950 374z"/>
<path style="fill:#0299bb; stroke:none;" d="M969 374L969 384L970 384L969 374z"/>
<path style="fill:#055b73; stroke:none;" d="M948 384L948 388L949 388L948 384z"/>
<path style="fill:#038faf; stroke:none;" d="M959.667 396.333L960.333 396.667L959.667 396.333z"/>
<path style="fill:#06576f; stroke:none;" d="M936 411L936 412C947.875 416.781 964.33 414 977 414L977 413L936 411z"/>
<path style="fill:#5e6068; stroke:none;" d="M931 435L931 436L934 436L931 435z"/>
<path style="fill:#aaacb0; stroke:none;" d="M895 436L895 437L904 437L895 436z"/>
<path style="fill:#2877be; stroke:none;" d="M929 436L930 437L929 436z"/>
<path style="fill:#ffffff; stroke:none;" d="M926 441L926 444L929 444L929 454L931 454L931 444L935 444L932 440L935 436L926 441M998.091 436.856C988.852 440.597 993.706 457.269 1003.96 453.278C1013.41 449.6 1008.35 432.704 998.091 436.856M1022 448L1022 450L1012 449C1015.89 459.875 1030.99 449.359 1020.91 444.155C1019.07 443.201 1016.97 442.648 1015 442L1015 440L1025 442C1020.87 430.074 1006.61 441.237 1016.09 446.27C1017.9 447.234 1020.02 447.567 1022 448z"/>
<path style="fill:#75c2f0; stroke:none;" d="M895 437L895 454L896 454L895 437z"/>
<path style="fill:#ffffff; stroke:none;" d="M896 437L896 454C903.104 453.984 918.628 445.48 906.784 438.285C903.735 436.433 899.412 437.002 896 437z"/>
<path style="fill:#ba9568; stroke:none;" d="M906 437L907 438L906 437z"/>
<path style="fill:#b2e2ff; stroke:none;" d="M928 437L928 441L929 441L928 437z"/>
<path style="fill:#286fb0; stroke:none;" d="M1013 437L1014 438L1013 437z"/>
<path style="fill:#2877c5; stroke:none;" d="M1012 438L1013 439L1012 438z"/>
<path style="fill:#5d584e; stroke:none;" d="M932 439L935 441L935 440L932 439z"/>
<path style="fill:#b2c2d4; stroke:none;" d="M1000.67 439.333L1001.33 439.667L1000.67 439.333z"/>
<path style="fill:#aaacb0; stroke:none;" d="M1017 439L1017 440L1020 440L1017 439z"/>
<path style="fill:#c1771a; stroke:none;" d="M899 440L899 451L900 451L899 440z"/>
<path style="fill:#0a0e1a; stroke:none;" d="M900 440L900 451C906.908 448.929 907.636 441.53 900 440z"/>
<path style="fill:#5d99c8; stroke:none;" d="M904 440L905 441L904 440z"/>
<path style="fill:#5d6770; stroke:none;" d="M917 440L917 441L920 441L917 440M926.667 440.333L927.333 440.667L926.667 440.333M940 440L940 441L944 441L940 440M950 440L950 441L954 441L950 440M957.667 440.333L958.333 440.667L957.667 440.333M969 440L969 441L973 441L969 440M983 440L983 441L986 441L983 440z"/>
<path style="fill:#65bbe9; stroke:none;" d="M993.333 440.667L993.667 441.333L993.333 440.667z"/>
<path style="fill:#d0a170; stroke:none;" d="M998 440L999 441L998 440z"/>
<path style="fill:#0a0e1a; stroke:none;" d="M999.398 441.224C995.5 443.582 997.922 452.225 1002.62 449.694C1006.83 447.423 1004.51 438.134 999.398 441.224z"/>
<path style="fill:#3775bb; stroke:none;" d="M1003 440L1004 441L1003 440z"/>
<path style="fill:#0a77c5; stroke:none;" d="M1011 440L1011 443L1012 443L1011 440z"/>
<path style="fill:#efc27e; stroke:none;" d="M1015.33 440.667L1015.67 441.333L1015.33 440.667z"/>
<path style="fill:#288ecc; stroke:none;" d="M905 441L906 442L905 441z"/>
<path style="fill:#ffffff; stroke:none;" d="M924 450L916 448L925 448C923.203 440.479 912.67 438.536 913.143 447.99C913.471 454.538 921.671 455.879 924 450z"/>
<path style="fill:#aa6f36; stroke:none;" d="M922 441L923 442L922 441z"/>
<path style="fill:#0a0ea9; stroke:none;" d="M925 441L925 444L926 444L925 441z"/>
<path style="fill:#4e95be; stroke:none;" d="M938 441L939 442L938 441z"/>
<path style="fill:#ffffff; stroke:none;" d="M948 450L939 448L948 448C947.365 441.975 938.88 437.493 936.532 445.156C934.04 453.29 943.93 456.559 948 450z"/>
<path style="fill:#75c2f0; stroke:none;" d="M950 441L950 454L951 454L950 441z"/>
<path style="fill:#ffffff; stroke:none;" d="M951 441L951 454L954 454C954.081 444.524 958.919 444.524 959 454L962 454C962 443.776 961.341 441.517 951 441M973 450L973 451L965 450C970.283 458.513 981.789 448.925 969 445L969 444L976 445C972.972 436.387 959.088 445.878 973 450z"/>
<path style="fill:#c19568; stroke:none;" d="M974 441L975 442L974 441z"/>
<path style="fill:#ffffff; stroke:none;" d="M990 450L982 448L991 448C989.203 440.479 978.67 438.536 979.143 447.99C979.471 454.538 987.671 455.879 990 450z"/>
<path style="fill:#aa6f36; stroke:none;" d="M988 441L989 442L988 441z"/>
<path style="fill:#6dc2f0; stroke:none;" d="M906.333 442.667L906.667 443.333L906.333 442.667z"/>
<path style="fill:#c1771a; stroke:none;" d="M910 442L910 448L911 448L910 442z"/>
<path style="fill:#c17736; stroke:none;" d="M923 442L924 443L923 442M989 442L990 443L989 442z"/>
<path style="fill:#0a0ea9; stroke:none;" d="M992 442L992 448L993 448L992 442z"/>
<path style="fill:#ffd9a9; stroke:none;" d="M996 442L996 448L997 448L996 442z"/>
<path style="fill:#75c2f0; stroke:none;" d="M1005 442L1005 448L1006 448L1005 442z"/>
<path style="fill:#c1771a; stroke:none;" d="M1009 442L1009 448L1010 448L1009 442z"/>
<path style="fill:#aa6036; stroke:none;" d="M1016 442L1017 443L1016 442z"/>
<path style="fill:#aabbd4; stroke:none;" d="M918.667 443.333L919.333 443.667L918.667 443.333z"/>
<path style="fill:#e7be70; stroke:none;" d="M924.333 443.667L924.667 444.333L924.333 443.667z"/>
<path style="fill:#0a77c5; stroke:none;" d="M936 443L937 444L936 443z"/>
<path style="fill:#aaacbe; stroke:none;" d="M941.667 443.333L942.333 443.667L941.667 443.333z"/>
<path style="fill:#d8a41a; stroke:none;" d="M962.333 443.667L962.667 444.333L962.333 443.667z"/>
<path style="fill:#aae0ff; stroke:none;" d="M965 443L965 447L966 447L965 443z"/>
<path style="fill:#6d8eb7; stroke:none;" d="M970.667 443.333L971.333 443.667L970.667 443.333z"/>
<path style="fill:#aabbd4; stroke:none;" d="M984.667 443.333L985.333 443.667L984.667 443.333z"/>
<path style="fill:#e8bb68; stroke:none;" d="M990.333 443.667L990.667 444.333L990.333 443.667z"/>
<path style="fill:#0aa4db; stroke:none;" d="M906 444L906 447L907 447L906 444M912.333 444.667L912.667 445.333L912.333 444.667z"/>
<path style="fill:#0a0e1a; stroke:none;" d="M917 444L917 446L921 446L921 444L917 444z"/>
<path style="fill:#a3d9ff; stroke:none;" d="M928 444L928 454L929 454L928 444z"/>
<path style="fill:#ffefc5; stroke:none;" d="M931 444L931 454L932 454L931 444z"/>
<path style="fill:#750e1a; stroke:none;" d="M932 444L932 454L933 454L932 444z"/>
<path style="fill:#0a0e1a; stroke:none;" d="M940 444L940 446L944 446L944 444L940 444z"/>
<path style="fill:#0aa4db; stroke:none;" d="M978.333 444.667L978.667 445.333L978.333 444.667z"/>
<path style="fill:#0a0e1a; stroke:none;" d="M983 444L983 446L987 446L987 444L983 444z"/>
<path style="fill:#286fb7; stroke:none;" d="M1012 444L1013 445L1012 444z"/>
<path style="fill:#b24a1a; stroke:none;" d="M916 445L917 446L916 445z"/>
<path style="fill:#750e1a; stroke:none;" d="M925 445L925 449L926 449L925 445z"/>
<path style="fill:#0a77c5; stroke:none;" d="M935 445L935 450L936 450L935 445z"/>
<path style="fill:#e0b353; stroke:none;" d="M939 445L940 446L939 445z"/>
<path style="fill:#0a95d4; stroke:none;" d="M944 445L945 446L944 445z"/>
<path style="fill:#c1771a; stroke:none;" d="M948 445L948 449L949 449L948 445z"/>
<path style="fill:#a30e1a; stroke:none;" d="M954 445L954 454L955 454L954 445z"/>
<path style="fill:#0a0ea9; stroke:none;" d="M958 445L958 454L959 454L958 445z"/>
<path style="fill:#efc27e; stroke:none;" d="M962 445L962 454L963 454L962 445z"/>
<path style="fill:#b24a1a; stroke:none;" d="M982 445L983 446L982 445z"/>
<path style="fill:#750e1a; stroke:none;" d="M991 445L991 449L992 449L991 445z"/>
<path style="fill:#75c2f0; stroke:none;" d="M912 446L912 450L913 450L912 446M978 446L978 450L979 450L978 446z"/>
<path style="fill:#a30e1a; stroke:none;" d="M1025 447L1025 451L1026 451L1025 447z"/>
<path style="fill:#aaacb0; stroke:none;" d="M916 448L916 449L925 449L916 448M939 450L948 449L939 450z"/>
<path style="fill:#efc27e; stroke:none;" d="M976 448L976 452L977 452L976 448z"/>
<path style="fill:#aaacb0; stroke:none;" d="M982 448L982 449L991 449L982 448z"/>
<path style="fill:#c1771a; stroke:none;" d="M997 448L998 449L997 448z"/>
<path style="fill:#aaacb0; stroke:none;" d="M1011 451L1012 451L1015 449C1012.59 447.645 1011.57 448.351 1011 451z"/>
<path style="fill:#9bd1ff; stroke:none;" d="M1021.33 448.667L1021.67 449.333L1021.33 448.667z"/>
<path style="fill:#ba601a; stroke:none;" d="M916 449L917 450L916 449M982 449L983 450L982 449z"/>
<path style="fill:#289dd4; stroke:none;" d="M993 449L994 450L993 449z"/>
<path style="fill:#aa4a1a; stroke:none;" d="M1015 449L1016 450L1015 449z"/>
<path style="fill:#7c9dbe; stroke:none;" d="M902.667 450.333L903.333 450.667L902.667 450.333z"/>
<path style="fill:#d8a85c; stroke:none;" d="M924.333 450.667L924.667 451.333L924.333 450.667z"/>
<path style="fill:#4eb3e2; stroke:none;" d="M944 450L945 451L944 450z"/>
<path style="fill:#d8a453; stroke:none;" d="M990.333 450.667L990.667 451.333L990.333 450.667z"/>
<path style="fill:#a37753; stroke:none;" d="M999 450L1000 451L999 450z"/>
<path style="fill:#5e9dd4; stroke:none;" d="M1020 450L1021 451L1020 450z"/>
<path style="fill:#c17736; stroke:none;" d="M908 451L909 452L908 451z"/>
<path style="fill:#aab3c5; stroke:none;" d="M918.667 451.333L919.333 451.667L918.667 451.333z"/>
<path style="fill:#2877c5; stroke:none;" d="M936 451L937 452L936 451z"/>
<path style="fill:#aaacb7; stroke:none;" d="M941.667 451.333L942.333 451.667L941.667 451.333z"/>
<path style="fill:#aaacb0; stroke:none;" d="M969 451L969 452L972 452L969 451z"/>
<path style="fill:#aab3c5; stroke:none;" d="M984.667 451.333L985.333 451.667L984.667 451.333z"/>
<path style="fill:#c17736; stroke:none;" d="M1007 451L1008 452L1007 451z"/>
<path style="fill:#aa6f36; stroke:none;" d="M907 452L908 453L907 452z"/>
<path style="fill:#286fb7; stroke:none;" d="M995 452L996 453L995 452z"/>
<path style="fill:#c9955a; stroke:none;" d="M1006 452L1007 453L1006 452z"/>
<path style="fill:#286fb7; stroke:none;" d="M1012 452L1013 453L1012 452z"/>
<path style="fill:#b28e6f; stroke:none;" d="M905 453L906 454L905 453z"/>
<path style="fill:#376fb0; stroke:none;" d="M938 453L939 454L938 453z"/>
<path style="fill:#c19568; stroke:none;" d="M974 453L975 454L974 453z"/>
<path style="fill:#ba9568; stroke:none;" d="M1022 453L1023 454L1022 453z"/>
<path style="fill:#5e6068; stroke:none;" d="M917 454L917 455L921 455L917 454M941 454L941 455L944 455L941 454M969 454L969 455L972 455L969 454M983 454L983 455L987 455L983 454M999 454L999 455L1003 455L999 454M1016 454L1016 455L1020 455L1016 454z"/>
<path style="fill:#617f99; stroke:none;" d="M1017 470L1016 481L1017 481L1017 473L1017 472L1019 470L1017 470z"/>
<path style="fill:#617495; stroke:none;" d="M876 471L876 481C884.712 480.548 884.73 471.447 876 471z"/>
<path style="fill:#4f7f9e; stroke:none;" d="M885 471L885 481L886 481L885 471z"/>
<path style="fill:#4f341a; stroke:none;" d="M886 471L886 481L887 481L886 471z"/>
<path style="fill:#6b7f7d; stroke:none;" d="M908 471L908 472L912 472L912 481L913 481L916 472L908 471z"/>
<path style="fill:#526d99; stroke:none;" d="M963 477L963 476L958 474L958 473L964 473C958.442 469.326 956.087 475.299 963 477z"/>
<path style="fill:#5e7f8d; stroke:none;" d="M968.409 472.192C964.031 474.895 967.798 482.778 972.482 479.808C976.859 477.034 973.217 469.222 968.409 472.192z"/>
<path style="fill:#6b7f7d; stroke:none;" d="M983 481L983 480C977.679 476.995 978.552 471.993 985 474C979.565 466.672 972.762 478.948 983 481z"/>
<path style="fill:#4f7f9e; stroke:none;" d="M991 471L991 481L992 481L992 477C999.302 476.208 997.359 471.33 991 471z"/>
<path style="fill:#0a1f68; stroke:none;" d="M999 471L999 481L1000 481L999 471z"/>
<path style="fill:#5e7f8d; stroke:none;" d="M1000 471L1000 481L1001 481L1000 471z"/>
<path style="fill:#0a0e1a; stroke:none;" d="M877 472L877 475L881 475L881 472L877 472z"/>
<path style="fill:#0a347d; stroke:none;" d="M911 472L911 481L912 481L911 472z"/>
<path style="fill:#0a0e1a; stroke:none;" d="M969.326 473.365C966.489 474.884 968.37 480.351 971.32 478.635C973.748 477.223 972.344 471.749 969.326 473.365z"/>
<path style="fill:#4f341a; stroke:none;" d="M992 472L992 476L993 476L992 472z"/>
<path style="fill:#0a0e1a; stroke:none;" d="M993 472L993 476L996 476L996 472L993 472z"/>
<path style="fill:#2b5f9e; stroke:none;" d="M1011 472C1011 475.644 1009.78 480.096 1014 481L1014 480L1011 472M888 473C888.11 477.923 888.762 480.432 894 481L894 473L893 473L892 480L890 480L888 473z"/>
<path style="fill:#6b5f4f; stroke:none;" d="M889 473L889 479L890 479L889 473z"/>
<path style="fill:#5e4a36; stroke:none;" d="M894 473L894 481L895 481L894 473z"/>
<path style="fill:#6b7b8d; stroke:none;" d="M903 480L903 479L898 479L898 478C900.993 477.936 902.346 478.054 903 475L902 475L898 477L901 474C895.834 473.324 896.671 481.127 903 480M923 480L923 479L918 479L918 478C920.993 477.936 922.346 478.054 923 475L922 475L918 477L921 474C915.834 473.324 916.671 481.127 923 480z"/>
<path style="fill:#46628f; stroke:none;" d="M925 474L925 475L929 475L929 476L925 481L931 481C930.894 476.308 930.297 473.252 925 474z"/>
<path style="fill:#0a1f68; stroke:none;" d="M932 473L932 481L933 481L932 473z"/>
<path style="fill:#5e7f8d; stroke:none;" d="M933 473L933 481L934 481L933 473z"/>
<path style="fill:#2b5f9e; stroke:none;" d="M935 473L937 481L938 481L941 475L941 474L935 473z"/>
<path style="fill:#5e7f7d; stroke:none;" d="M939 473L939 474L942 481L943 481C942.913 477.1 942.865 474.53 939 473z"/>
<path style="fill:#0a347d; stroke:none;" d="M996 473L996 476L997 476L996 473z"/>
<path style="fill:#5e7f8d; stroke:none;" d="M1004 473L1004 475L1008 475L1008 476L1003 477L1003 481L1009 481C1008.9 476.626 1008.63 473.981 1004 473z"/>
<path style="fill:#5e4a36; stroke:none;" d="M1012 473L1012 480L1013 480L1014 473L1012 473z"/>
<path style="fill:#616d85; stroke:none;" d="M1022.37 474.06C1019.09 475.103 1020.29 481.096 1023.88 480.067C1027.65 478.988 1026.18 472.85 1022.37 474.06z"/>
<path style="fill:#194a8d; stroke:none;" d="M1028 473L1028 481L1029 481L1028 473z"/>
<path style="fill:#5e6974; stroke:none;" d="M1034 473L1034 481L1035 481L1035 475L1039 475L1039 481L1040 481L1040 475L1043 475L1043 481L1044 481C1043.83 473.41 1040.63 473.588 1034 473z"/>
<path style="fill:#2e3853; stroke:none;" d="M898 477L903 474L898 477M918 477L923 474L918 477z"/>
<path style="fill:#0a3881; stroke:none;" d="M973 474L973 478L974 478L973 474z"/>
<path style="fill:#0a347d; stroke:none;" d="M976 474L976 478L977 478L976 474z"/>
<path style="fill:#6b7068; stroke:none;" d="M1029 474L1029 481L1030 481L1031 474L1029 474z"/>
<path style="fill:#103b85; stroke:none;" d="M896 475L896 479L897 479L896 475M916 475L916 479L917 479L916 475z"/>
<path style="fill:#6b5f4f; stroke:none;" d="M938 475L938 481L939 481L938 475z"/>
<path style="fill:#0a1f68; stroke:none;" d="M941 475L941 481L942 481L941 475z"/>
<path style="fill:#6b706c; stroke:none;" d="M949 475L949 477L951 477L951 475L949 475z"/>
<path style="fill:#0a2670; stroke:none;" d="M1019 475L1019 479L1020 479L1019 475z"/>
<path style="fill:#0a0e1a; stroke:none;" d="M1021 475L1022 480L1024 480L1025 475L1021 475z"/>
<path style="fill:#4f341a; stroke:none;" d="M1035 475L1035 481L1036 481L1035 475z"/>
<path style="fill:#194a8d; stroke:none;" d="M1038 475L1038 481L1039 481L1038 475z"/>
<path style="fill:#2e3853; stroke:none;" d="M877 476L877 480L878 480L881 477L877 476z"/>
<path style="fill:#0a0e1a; stroke:none;" d="M878 480L882 477L878 480z"/>
<path style="fill:#4c6e9a; stroke:none;" d="M963 477L957 478C959.022 480.714 963.597 481.548 963 477z"/>
<path style="fill:#4f341a; stroke:none;" d="M992 477L992 481L993 481L995 478L992 477z"/>
<path style="fill:#0a0e1a; stroke:none;" d="M926 478L926 480L929 480L929 478L926 478z"/>
<path style="fill:#524e4b; stroke:none;" d="M984 478L983 481L984 478z"/>
<path style="fill:#0a0e1a; stroke:none;" d="M1004 478L1004 480L1007 480L1007 478L1004 478z"/>
<path style="fill:#141d35; stroke:none;" d="M776.003 518.959C769.722 520.988 768.06 527.173 768.003 533C767.875 546.331 768 559.669 768 573L768 718L768 753C768.002 757.867 767.374 763.797 771.353 767.408C777.388 772.884 788.549 771 796 771L859 771L1063 771L1121 771C1127.72 771 1138.88 773.298 1144.99 770.528C1151.34 767.65 1151.98 761.103 1152 755C1152.04 742 1152 729 1152 716L1152 570C1152 558.253 1157.37 528.246 1146.93 520.613C1141.17 516.409 1128.89 519 1122 519L1057 519L861 519L802 519C794.49 519 783.054 516.682 776.003 518.959z"/>
<path style="fill:#1e2d4a; stroke:none;" d="M779 518L779 519L1141 519L1107 518L1033 518L779 518z"/>
<path style="fill:#607273; stroke:none;" d="M794 546C794.086 556.081 800.914 556.081 801 546L800 546C799.569 554.435 796.352 551.791 794 546z"/>
<path style="fill:#627597; stroke:none;" d="M805 546L805 547L808 547L805 546z"/>
<path style="fill:#142c73; stroke:none;" d="M811 546L811 555L812 555L811 546z"/>
<path style="fill:#6b7f9e; stroke:none;" d="M812 546L812 555L817 555L817 554L813 554L813 551L817 551L817 550L813 550L813 547L817 547L812 546z"/>
<path style="fill:#142c73; stroke:none;" d="M819 546L819 555L820 555L819 546z"/>
<path style="fill:#4f6083; stroke:none;" d="M820 546L820 555L821 555L821 552L826 555C825.691 549.849 825.701 546.829 820 546z"/>
<path style="fill:#527f90; stroke:none;" d="M828 546L828 555L829 555L831 550L828 546z"/>
<path style="fill:#607f83; stroke:none;" d="M834 546L834 552L831 550L835 555L834 546z"/>
<path style="fill:#606c8d; stroke:none;" d="M839 546L837 555L838 555L843 555L844 555L843 549L842 549L840 552L842 546L839 546z"/>
<path style="fill:#215190; stroke:none;" d="M846 546L846 555L847 555L846 546z"/>
<path style="fill:#557f87; stroke:none;" d="M847 546L847 555L848 555L848 550L849 550L849 552L850 552L847 546z"/>
<path style="fill:#42729e; stroke:none;" d="M853 546L854 555L855 555L855 546L853 546z"/>
<path style="fill:#523e35; stroke:none;" d="M855 546L855 555L856 555L855 546z"/>
<path style="fill:#527f90; stroke:none;" d="M858 546L858 555L863 555L863 554L859 554L859 551L863 551L863 550L859 550L859 547L863 547L858 546z"/>
<path style="fill:#60544b; stroke:none;" d="M803 547L803 550L805 550L805 547L803 547z"/>
<path style="fill:#141d35; stroke:none;" d="M821 547L821 550L824 550L824 547L821 547z"/>
<path style="fill:#34417d; stroke:none;" d="M840 548L840 552L842 552L842 548L840 548z"/>
<path style="fill:#5a7290; stroke:none;" d="M852 549L850 555L852 549z"/>
<path style="fill:#6b7f9a; stroke:none;" d="M805 550L805 551L808 554L803 553L803 554L809 555L805 550z"/>
<path style="fill:#1e2d4a; stroke:none;" d="M798 565L798 566L1120 566L1089 565L1023 565L798 565z"/>
<path style="fill:#0a0e1a; stroke:none;" d="M798.101 567.15C790.6 571.35 791.038 603.038 800.038 605.588C807.137 607.598 816.646 606 824 606L876 606L1045 606L1102 606C1107.95 606 1118.77 608.02 1123.4 603.397C1129.62 597.172 1128.62 568.526 1119 566.406C1111.22 564.692 1101.94 566 1094 566L1043 566L882 566L822 566C815.377 566 804.014 563.839 798.101 567.15z"/>
<path style="fill:#0a0e5f; stroke:none;" d="M830 581L830 591L831 591L830 581z"/>
<path style="fill:#77a3af; stroke:none;" d="M831 581L831 591L832 591L831 581z"/>
<path style="fill:#77531a; stroke:none;" d="M832 581L832 591L833 591L832 581z"/>
<path style="fill:#6095af; stroke:none;" d="M850 582C850 585.644 848.783 590.096 853 591L853 590L850 582z"/>
<path style="fill:#8090a5; stroke:none;" d="M807 584L807 585L811 585L811 586L807 591L813 591C812.895 586.292 812.366 583.045 807 584z"/>
<path style="fill:#0a377b; stroke:none;" d="M814 583L814 591L815 591L814 583z"/>
<path style="fill:#89a38e; stroke:none;" d="M815 583L815 591L816 591L816 585L820 585L820 591L821 591C820.889 586.046 820.184 583.653 815 583z"/>
<path style="fill:#89a3a1; stroke:none;" d="M824 583L824 585L828 585L828 586L823 591L829 591C828.902 586.626 828.627 583.981 824 583z"/>
<path style="fill:#85909c; stroke:none;" d="M834 583L837 592L834 593L834 594C837.56 592.642 838.325 590.66 839 587L834 583z"/>
<path style="fill:#85a3a5; stroke:none;" d="M839 583L839 587L840 587L841 583L839 583z"/>
<path style="fill:#7290a1; stroke:none;" d="M842 587C844.131 588.055 845.596 588.753 843 590L843 591L848 587L844 586L844 585L848 585C845.005 582.832 843.155 583.525 842 587z"/>
<path style="fill:#77531a; stroke:none;" d="M852 583L851 590L852 590L852 583z"/>
<path style="fill:#60371a; stroke:none;" d="M816 585L816 591L817 591L816 585z"/>
<path style="fill:#0a377b; stroke:none;" d="M819 585L819 591L820 591L819 585z"/>
<path style="fill:#60371a; stroke:none;" d="M829 585L829 591L830 591L829 585z"/>
<path style="fill:#206b9c; stroke:none;" d="M838.333 585.667L838.667 586.333L838.333 585.667z"/>
<path style="fill:#0a3c80; stroke:none;" d="M835.333 587.667L835.667 588.333L835.333 587.667z"/>
<path style="fill:#0a4a89; stroke:none;" d="M806.333 588.667L806.667 589.333L806.333 588.667z"/>
<path style="fill:#0a0e1a; stroke:none;" d="M808 588L808 590L811 590L811 588L808 588z"/>
<path style="fill:#806131; stroke:none;" d="M824.333 588.667L824.667 589.333L824.333 588.667z"/>
<path style="fill:#0a0e1a; stroke:none;" d="M825 588L825 590L827 590L827 588L825 588z"/>
<path style="fill:#897448; stroke:none;" d="M842.667 589.333L843.333 589.667L842.667 589.333z"/>
<path style="fill:#135d93; stroke:none;" d="M836.333 590.667L836.667 591.333L836.333 590.667z"/>
<path style="fill:#1e2d4a; stroke:none;" d="M798 606L798 607L1120 607L1089 606L1023 606L798 606z"/>
<path style="fill:#527f90; stroke:none;" d="M794 626L794 635L795 635L795 632C801.1 630.717 799.201 626.755 794 626z"/>
<path style="fill:#606c8d; stroke:none;" d="M803 626L801 635L802 635L807 635L808 635L807 629L806 629L804 632L806 626L803 626z"/>
<path style="fill:#31639e; stroke:none;" d="M815 634L816 634L811 629L811 628L816 628C809.249 623.719 812.432 631.025 815 634z"/>
<path style="fill:#627597; stroke:none;" d="M820 626L820 627L823 627L820 626z"/>
<path style="fill:#557b7d; stroke:none;" d="M827 626L828 635L831 629L832 629L835 635L833 626L830 632L829 632L827 626z"/>
<path style="fill:#144187; stroke:none;" d="M836 626L834 633L835 633L836 626z"/>
<path style="fill:#476997; stroke:none;" d="M839 633L840 633L844 627C844.457 630.567 844.076 632.069 841 634C851.995 636.633 840.589 617.92 839 633z"/>
<path style="fill:#527f90; stroke:none;" d="M849 626L849 635L850 635L853 631L850 630L850 627L853 627L849 626z"/>
<path style="fill:#215190; stroke:none;" d="M857 626L857 635L858 635L857 626z"/>
<path style="fill:#6b635f; stroke:none;" d="M858 626L858 634L859 634L862 627L858 626z"/>
<path style="fill:#141d35; stroke:none;" d="M795 627L795 631L799 630L799 628L795 627z"/>
<path style="fill:#60544b; stroke:none;" d="M818 627L818 630L820 630L820 627L818 627z"/>
<path style="fill:#141d35; stroke:none;" d="M850 627L854 630L850 627z"/>
<path style="fill:#655d59; stroke:none;" d="M853 627L853 633L854 633L853 627z"/>
<path style="fill:#34417d; stroke:none;" d="M804 628L804 632L806 632L806 628L804 628z"/>
<path style="fill:#6b7f9e; stroke:none;" d="M863 628L858 634L858 635C862.445 634.518 864.569 632.517 863 628z"/>
<path style="fill:#6b7f9a; stroke:none;" d="M820 630L820 631L823 634L818 633L818 634L824 635L820 630z"/>
<path style="fill:#6b7b9a; stroke:none;" d="M810 633L810 634L815 635L815 634L810 633z"/>
<path style="fill:#607f8d; stroke:none;" d="M854.333 633.667L854.667 634.333L854.333 633.667z"/>
<path style="fill:#1e2d4a; stroke:none;" d="M798 645L798 646L1120 646L1089 645L1023 645L798 645z"/>
<path style="fill:#0a0e1a; stroke:none;" d="M798.101 647.15C790.6 651.35 791.038 683.038 800.038 685.588C807.137 687.598 816.646 686 824 686L876 686L1045 686L1102 686C1107.95 686 1118.77 688.02 1123.4 683.397C1129.62 677.172 1128.62 648.526 1119 646.406C1111.22 644.692 1101.94 646 1094 646L1043 646L882 646L822 646C815.377 646 804.014 643.839 798.101 647.15z"/>
<path style="fill:#6b7f9e; stroke:none;" d="M1104 661L1104 662L1110 662L1104 661z"/>
<path style="fill:#6a7e9c; stroke:none;" d="M1110 662C1113.13 670.921 1100.87 670.921 1104 662C1088.25 671.872 1125.75 671.872 1110 662z"/>
<path style="fill:#0a0e1a; stroke:none;" d="M1104.26 663.163C1099.22 666.238 1105.73 671.286 1109.74 668.837C1114.78 665.762 1108.27 660.714 1104.26 663.163z"/>
<path style="fill:#5d6e8b; stroke:none;" d="M1110 668C1107.21 660.268 1101.39 668.801 1110 668z"/>
<path style="fill:#9ca3af; stroke:none;" d="M808 665L808 669L812 669L812 665L808 665M816 665L816 669L820 669L820 665L816 665M824 665L824 669L828 665L824 665M832 665L832 669L836 665L832 665M839 666L839 668L843 669L843 665L839 666M847 666L847 668L851 669L851 665L847 666M855 665L855 669L859 669L859 665L855 665M863 665L863 669L867 669L867 665L863 665z"/>
<path style="fill:#0a0e1a; stroke:none;" d="M1106 665L1106 667L1108 667L1108 665L1106 665z"/>
<path style="fill:#0a4f8e; stroke:none;" d="M823.333 666.667L823.667 667.333L823.333 666.667M831.333 666.667L831.667 667.333L831.333 666.667z"/>
<path style="fill:#8e7448; stroke:none;" d="M843.333 666.667L843.667 667.333L843.333 666.667M851.333 666.667L851.667 667.333L851.333 666.667z"/>
<path style="fill:#7c5d27; stroke:none;" d="M859.333 666.667L859.667 667.333L859.333 666.667M867.333 666.667L867.667 667.333L867.333 666.667z"/>
<path style="fill:#1e2d4a; stroke:none;" d="M798 686L798 687L1120 687L1089 686L1023 686L798 686z"/>
<path style="fill:#00d4ff; stroke:none;" d="M798.074 703.845C789.663 707.397 791.945 731.431 793.379 738.997C794.019 742.372 795.611 745.405 799.073 746.479C806.073 748.65 815.71 747 823 747L875 747L1044 747L1101 747C1107.26 747 1118.22 749.019 1123.51 744.965C1126.77 742.463 1126.92 737.741 1126.99 734C1127.14 725.525 1130.86 706.066 1119.99 703.534C1112.2 701.721 1102.96 703 1095 703L1045 703L887 703L825 703C817.209 703 805.326 700.782 798.074 703.845z"/>
<path style="fill:#0889ad; stroke:none;" d="M1120.67 703.333L1121.33 703.667L1120.67 703.333z"/>
<path style="fill:#0a0e1a; stroke:none;" d="M941 729L935 728C936.44 729.942 942.146 732.623 942.176 727.936C942.193 725.352 938.337 723.041 937 721L943 722C941.207 720.362 934.988 717.758 935.627 722.873C935.929 725.292 939.445 727.339 941 729z"/>
<path style="fill:#0a0e53; stroke:none;" d="M945 719L945 721L947 721L947 719L945 719z"/>
<path style="fill:#0a0e1a; stroke:none;" d="M973 719L973 731L975 731L975 719L973 719z"/>
<path style="fill:#06586f; stroke:none;" d="M941.667 722.333L942.333 722.667L941.667 722.333z"/>
<path style="fill:#00d4be; stroke:none;" d="M944 722L944 731L945 731L944 722z"/>
<path style="fill:#0a0e3d; stroke:none;" d="M945 722L945 731L947 731L947 722L945 722z"/>
<path style="fill:#0a0e1a; stroke:none;" d="M955 730L949 732L949 733C957.482 735.137 956.999 728.565 957 722C950.068 722.586 946.421 730.739 955 730z"/>
<path style="fill:#02521a; stroke:none;" d="M959 722L959 731L960 731L959 722z"/>
<path style="fill:#0a0e1a; stroke:none;" d="M960 722L960 731L961 731L960 722z"/>
<path style="fill:#060e1a; stroke:none;" d="M962 722L965 724L965 731C966.459 727.061 966.126 723.635 962 722z"/>
<path style="fill:#017d3d; stroke:none;" d="M977 722L977 731L978 731L977 722z"/>
<path style="fill:#091a21; stroke:none;" d="M978 722L978 731L979 731L983 724L983 731L985 731C984.949 725.097 984.149 722.746 978 722z"/>
<path style="fill:#00a89a; stroke:none;" d="M979.667 722.333L980.333 722.667L979.667 722.333z"/>
<path style="fill:#0a2c93; stroke:none;" d="M961.333 723.667L961.667 724.333L961.333 723.667z"/>
<path style="fill:#0a0e68; stroke:none;" d="M966 723L966 731L967 731L966 723z"/>
<path style="fill:#00d4ff; stroke:none;" d="M951 724L951 729L955 729L955 724L951 724z"/>
<path style="fill:#087de2; stroke:none;" d="M961 725L961 731L962 731L961 725z"/>
<path style="fill:#0a52be; stroke:none;" d="M979 725L979 731L980 731L979 725z"/>
<path style="fill:#0396b7; stroke:none;" d="M951 734L951 735L955 735L951 734z"/>
<path style="fill:#097ea0; stroke:none;" d="M793.333 740.667L793.667 741.333L793.333 740.667M1126.33 740.667L1126.67 741.333L1126.33 740.667z"/>
<path style="fill:#088aae; stroke:none;" d="M1120.67 746.333L1121.33 746.667L1120.67 746.333z"/>
<path style="fill:#1e2d4a; stroke:none;" d="M773 769L773 770C782.677 774.39 796.518 772 807 772L881 772L1141 772L1141 771L895 771L819 771L773 769z"/>
<path style="fill:#5e6989; stroke:none;" d="M868 791L866 800L867 800L872 800L873 800L871 791L868 791z"/>
<path style="fill:#5e7f7d; stroke:none;" d="M893 791L892 794C886.034 793.631 889.467 799.509 894 800L893 791z"/>
<path style="fill:#194a8d; stroke:none;" d="M913 791L913 800L914 800L915 791L913 791z"/>
<path style="fill:#437489; stroke:none;" d="M928 791L928 794L929 794L928 791z"/>
<path style="fill:#2b5f9e; stroke:none;" d="M934 791L934 800L940 800L940 799L935 799L935 796L939 796L939 795L935 795L935 792L940 792L934 791z"/>
<path style="fill:#5e7f7d; stroke:none;" d="M946 791L945 794C939.034 793.631 942.467 799.509 947 800L946 791z"/>
<path style="fill:#194a8d; stroke:none;" d="M973 791L973 800L974 800L975 791L973 791M997 791L997 800L998 800L997 791z"/>
<path style="fill:#5e4a36; stroke:none;" d="M998 791L998 800L999 800L998 791z"/>
<path style="fill:#0a1f68; stroke:none;" d="M1003 791L1003 798L1004 798L1003 791z"/>
<path style="fill:#5e7f80; stroke:none;" d="M1004 791C1004.04 795.61 1003.96 798.932 1009 800L1009 799L1004 791z"/>
<path style="fill:#0a347d; stroke:none;" d="M1009 791L1009 799L1010 799L1009 791z"/>
<path style="fill:#6b5f4f; stroke:none;" d="M1010 791L1010 799L1011 799L1010 791z"/>
<path style="fill:#617491; stroke:none;" d="M1029 798L1030 798C1031.6 793.466 1034.4 793.465 1036 798C1038.21 790.821 1029.82 790.26 1029 798z"/>
<path style="fill:#0a1f68; stroke:none;" d="M1045 791L1045 800L1046 800L1045 791z"/>
<path style="fill:#5e7068; stroke:none;" d="M1046 791L1046 800L1047 800L1046 791z"/>
<path style="fill:#4f7f7d; stroke:none;" d="M970 792L972 800L970 792z"/>
<path style="fill:#4c5b78; stroke:none;" d="M879 800L879 799L876 799L876 795L880 795C874.95 792.176 872.897 798.703 879 800z"/>
<path style="fill:#6b5f4f; stroke:none;" d="M882 794L886 800C887.344 796.172 886.158 793.821 882 794z"/>
<path style="fill:#4c5b78; stroke:none;" d="M896 799L897 799L901 797C899.187 791.544 896.322 794.864 896 799M906 794L907 800L908 800L908 795L910 795L910 800L912 800C911.764 795.444 910.837 793.375 906 794z"/>
<path style="fill:#5e4a36; stroke:none;" d="M914 793L914 800L915 800L914 793z"/>
<path style="fill:#4f7f89; stroke:none;" d="M916 799L917 799L917 795L921 795C917.374 793.073 916.384 795.538 916 799z"/>
<path style="fill:#4f7f7d; stroke:none;" d="M949 793L949 800L954 800L954 793L953 793L953 799L950 799L949 793z"/>
<path style="fill:#6b6960; stroke:none;" d="M956 799L957 799L957 795L961 795C957.331 792.861 956.38 795.486 956 799z"/>
<path style="fill:#647068; stroke:none;" d="M963 794L963 795L967 795L967 796L963 796L963 800L968 800C967.796 796.048 967.37 793.601 963 794z"/>
<path style="fill:#5e4a36; stroke:none;" d="M974 793L974 800L975 800L974 793z"/>
<path style="fill:#3d708d; stroke:none;" d="M978.326 794.443C975.875 795.634 976.761 800.002 979.686 799.07C982.628 798.133 981.302 792.996 978.326 794.443z"/>
<path style="fill:#0a1f68; stroke:none;" d="M983 793L983 800L984 800L986 794L983 793z"/>
<path style="fill:#5e7068; stroke:none;" d="M984 800L985 800L985 795L988 795L988 800L989 800L988 793C984.584 794.565 984.189 796.348 984 800z"/>
<path style="fill:#6b5f4f; stroke:none;" d="M991 794L995 800C996.344 796.172 995.158 793.821 991 794z"/>
<path style="fill:#192a64; stroke:none;" d="M1014 793L1017 795L1014 793z"/>
<path style="fill:#4c5b78; stroke:none;" d="M1019 799L1020 799L1024 797C1022.19 791.544 1019.32 794.864 1019 799z"/>
<path style="fill:#2e3b6c; stroke:none;" d="M1038 793L1038 800L1040 800L1040 795L1042 795L1042 800L1043 800L1043 793L1038 793z"/>
<path style="fill:#52629e; stroke:none;" d="M1048 793L1050 802L1051 802L1048 793z"/>
<path style="fill:#255899; stroke:none;" d="M1053 793L1052 797L1053 797L1053 793z"/>
<path style="fill:#0a0e1a; stroke:none;" d="M897 796L900 796L899 794L897 796z"/>
<path style="fill:#4f7f7d; stroke:none;" d="M903 794L903 800L904 800L905 794L903 794z"/>
<path style="fill:#6b7b99; stroke:none;" d="M1013 794L1016 797L1016 796L1013 794z"/>
<path style="fill:#0a0e1a; stroke:none;" d="M1020 796L1023 796L1022 794L1020 796z"/>
<path style="fill:#4f341a; stroke:none;" d="M1030 794L1032 799L1030 794z"/>
<path style="fill:#6b5f4f; stroke:none;" d="M1043 794L1043 800L1044 800L1043 794z"/>
<path style="fill:#0a0e1a; stroke:none;" d="M889 795L890 799L892 799L893 795L889 795z"/>
<path style="fill:#0a347d; stroke:none;" d="M895 795L895 799L896 799L895 795M906 795L906 800L907 800L906 795z"/>
<path style="fill:#194a8d; stroke:none;" d="M927 795L926 801L927 801L927 795z"/>
<path style="fill:#0a0e1a; stroke:none;" d="M942 795L943 799L945 799L946 795L942 795z"/>
<path style="fill:#0a347d; stroke:none;" d="M955 795L955 799L956 799L955 795z"/>
<path style="fill:#0a0e1a; stroke:none;" d="M977 795L978 799L980 799L981 795L977 795z"/>
<path style="fill:#0a347d; stroke:none;" d="M1018 795L1018 799L1019 799L1018 795z"/>
<path style="fill:#647495; stroke:none;" d="M882 796L882 797L885 798L882 799L882 800L886 800L886 796L882 796z"/>
<path style="fill:#5e4a36; stroke:none;" d="M935 796L935 799L936 799L935 796z"/>
<path style="fill:#647495; stroke:none;" d="M990 797L990 799L995 800L995 796L990 797z"/>
<path style="fill:#255899; stroke:none;" d="M881.333 797.667L881.667 798.333L881.333 797.667z"/>
<path style="fill:#091826; stroke:none;" d="M882 797L882 799L885 799L885 797L882 797z"/>
<path style="fill:#133f89; stroke:none;" d="M962.333 797.667L962.667 798.333L962.333 797.667z"/>
<path style="fill:#0a0e1a; stroke:none;" d="M964 797L964 799L966 799L966 797L964 797M992 797L992 799L994 799L994 797L992 797z"/>
<path style="fill:#61779e; stroke:none;" d="M1016 797L1013 798C1014.5 800.076 1017.09 799.887 1016 797z"/>
<path style="fill:#647495; stroke:none;" d="M900 798L897 799L897 800L900 798z"/>
<path style="fill:#677795; stroke:none;" d="M917 799L917 800L922 799L917 799z"/>
<path style="fill:#647495; stroke:none;" d="M1023 798L1020 799L1020 800L1023 798M957 799L957 800L960 800L957 799z"/>
<path style="fill:#6b7f9e; stroke:none;" d="M1031 799L1031 800L1035 800L1031 799z"/>
<path style="fill:#202020; stroke:none;" d="M0 1078L0 1080L1920 1080L1920 1078L0 1078z"/>
</svg>
